# xmcd
#
# Track frame offsets: 
#        150
#        13138
#        19812
#        28143
#        34275
#        43985
#        51027
#        62357
#        71412
#        78205
#        86989
#        100863
#
# Disc length: 1656 seconds
#
# Revision: 0
# Processed by: cddbd v1.5.2PL0 Copyright (c) Steve Scherf et al.
# Submitted via: ExactAudioCopy v0.99pb5
#
DISCID=9a06760c
DTITLE=The Replacements  - Stink (1982)  
DYEAR=1900
DGENRE=
TTITLE0=Replacements - Kids Don't Follow
TTITLE1=Replacements - Fuck School
TTITLE2=Replacements - Stuck in the Middle
TTITLE3=Replacements - God Damn Job
TTITLE4=Replacements - White and Lazy
TTITLE5=Replacements - Dope Smokin' Moron
TTITLE6=Replacements - Go
TTITLE7=Replacements - Gimme Noize
TTITLE8=Replacements - Staples in Her Stomach
TTITLE9=Replacements - Hey, Good Lookin'
TTITLE10=Replacements - Rock Around the Clock
TTITLE11=Replacements - You're Getting Married
EXTD=
EXTT0=
EXTT1=
EXTT2=
EXTT3=
EXTT4=
EXTT5=
EXTT6=
EXTT7=
EXTT8=
EXTT9=
EXTT10=
EXTT11=
PLAYORDER=
